<?xml version="1.0" encoding="UTF-8" standalone="no"?>
<!-- Created with Inkscape (http://www.inkscape.org/) -->

<svg
   width="359.40234"
   height="484.70703"
   viewBox="0 0 359.40234 484.70703"
   version="1.1"
   id="svg1"
   xmlns="http://www.w3.org/2000/svg"
   xmlns:svg="http://www.w3.org/2000/svg">
  <defs
     id="defs1" />
  <g
     id="layer1">
    <path
       id="path4-5"
       d="M 256.08594,1.0585976 C 231.47388,42.351703 214.68019,73.120919 134.98047,123.34766 l 36.32031,-0.0762 c 6.1706,27.75017 12.00238,55.68044 17.04102,83.81055 -11.84718,-6.23669 -23.11413,-11.06063 -45.61328,-18.98047 -43.227493,37.49164 -37.62695,38.41798 -106.984383,102.16992 l 47.89063,-8.04687 c 1.96786,10.54486 3.84863,21.07387 5.6289,31.58398 l -35.73242,-8.78515 C 45.750537,319.78429 14.464087,349.04281 -3.175e-6,367.99998 L 28.714837,366.39451 c 26.63472,34.72352 33.78289,75.0155 26.70508,119.37109 l 66.755863,-1.25976 -0.041,-0.62891 h 123.47461 l -0.18946,-2.51953 h 66.31446 l 15.32617,-353.10547 32.34179,2.73243 C 275.41669,64.908073 277.00927,41.856622 256.08594,1.0585976 Z M 239.37891,141.25391 h 19.52343 v 34.00781 h -19.52343 z m -26.59766,10.02539 h 19.68359 v 24.09179 h -19.68359 z m 0.70313,30.79687 h 19.58007 v 30.28516 h -19.58007 z m 26.0625,0.46094 h 19.39453 v 43.32422 h -19.39453 z m -43.86915,96.82031 h 19.52149 v 34.00781 h -19.52149 z m -38.94531,8.92774 h 28.75196 v 33.78906 h -28.75196 z m -30.48437,10.54687 h 19.68359 v 24.0918 h -19.68359 z m 70.90625,22.94531 h 19.52343 V 355.7832 H 197.1543 Z m -40.23828,7.80469 h 28.59375 v 43.07813 h -28.59375 z m -29.96485,0.0469 h 19.58008 v 30.28515 h -19.58008 z m 152.76953,2.51367 h 19.52344 v 34.00586 H 279.7207 Z m -26.59765,10.02539 h 19.68359 v 24.0918 h -19.68359 z m 0.70312,30.79687 h 19.58008 v 30.28516 h -19.58008 z m 26.0625,0.45899 h 19.39258 v 43.32422 h -19.39258 z m -183.533203,6.54101 c 5.914513,-0.44359 7.864463,13.60113 8.187503,19.52344 l 1.88867,34.63672 c 0.32303,5.92231 -3.18963,18.87948 -8.816413,17.00391 l -7.55859,-2.51953 c -5.62676,-1.87559 -9.54702,-7.80868 -11.96484,-13.22461 l -15.74414,-35.26758 c -2.41784,-5.41595 2.90189,-17.82008 8.8164,-18.26367 z m 85.017583,16.35352 c 18.15352,0 32.55401,13.47134 32.76757,30.20117 l 0.63086,49.36524 c 0,0 -64.85917,3.05011 -64.90625,1.16211 l -1.25976,-50.52735 c -0.41721,-16.72657 14.61405,-30.20117 32.76758,-30.20117 z" />
  </g>
</svg>
